# Blender 4.0.2
# www.blender.org
mtllib Flag_RoundArch.mtl
o Flag_RoundArch
v -1.084053 3.088839 0.006105
v -0.865168 3.256218 0.089084
v -0.653403 3.377778 -0.084823
v -1.083555 3.088839 -0.193851
v -0.864464 3.256218 -0.193851
v -0.653115 3.377778 -0.203408
v -0.896172 3.233761 0.056483
v -0.895558 3.233761 -0.183461
v -0.521092 2.435064 -0.193851
v -0.388111 2.382234 -0.193851
v -0.226728 2.578460 -0.193851
v -0.342326 2.645878 -0.193851
v -0.185753 2.859599 -0.203408
v -0.263250 2.887355 -0.203408
v -0.235605 2.505571 -0.183461
v -0.384814 2.539146 -0.183461
v 1.084500 3.088839 0.102243
v 0.865409 3.256218 0.102243
v 0.654060 3.377778 0.102243
v 1.083555 3.088839 -0.193851
v 0.864464 3.256218 -0.193851
v 0.653115 3.377778 -0.203408
v 0.896502 3.233761 0.112634
v 0.910256 3.222431 -0.184274
v 0.521092 2.435064 -0.193851
v 0.388111 2.382234 -0.193851
v 0.220015 2.563355 -0.193851
v 0.350562 2.640336 -0.193851
v 0.185753 2.859599 -0.203408
v 0.320805 2.911750 -0.203408
v 0.230571 2.522354 -0.183461
v 0.369865 2.603428 -0.183461
v -0.072297 2.389982 -0.193851
v 0.131038 2.250355 -0.193851
v 0.082023 2.551819 -0.193851
v -0.082023 2.551818 -0.193851
v 0.082023 2.839832 -0.203408
v -0.082023 2.839832 -0.203408
v 0.082033 2.508288 -0.183461
v -0.082033 2.508288 -0.183461
v -0.748866 3.323076 0.064945
v -0.748222 3.323076 -0.193851
v -0.330489 2.792107 -0.193851
v -0.205564 2.739823 -0.193851
v 0.749167 3.323076 0.102243
v 0.735142 3.330600 -0.198502
v 0.338391 2.732271 -0.193851
v 0.208500 2.695072 -0.193851
v -0.082023 2.710226 -0.193851
v 0.080625 2.680856 -0.193851
v -0.737695 3.329548 0.095252
v -0.736970 3.329548 -0.203408
v -0.315712 2.802353 -0.203408
v 0.737915 3.329548 0.102243
v 0.721343 3.338536 -0.203408
v 0.334290 2.808259 -0.203408
v -0.073632 2.738147 -0.203408
v -0.200679 2.769362 -0.203408
v 0.206139 2.747923 -0.203408
v 0.082023 2.725560 -0.203408
v -0.852650 2.690489 -0.193851
v -0.747733 2.580036 -0.193851
v -0.645897 2.898285 -0.193851
v -0.537661 2.792719 -0.193851
v -0.381313 2.948852 -0.203408
v -0.485064 3.060674 -0.203408
v -0.597975 2.697261 -0.183461
v -0.700987 2.841589 -0.185073
v -0.570445 2.976655 -0.193851
v -0.464999 2.866661 -0.193851
v -0.444421 2.885935 -0.203408
v -0.547091 2.998836 -0.203408
v 0.771689 2.595359 -0.193851
v 0.848878 2.735892 -0.193851
v 0.590405 2.801593 -0.193851
v 0.654713 2.872642 -0.193851
v 0.469961 3.032175 -0.203408
v 0.405963 2.963967 -0.203408
v 0.707845 2.845913 -0.183461
v 0.614350 2.770874 -0.183461
v 0.495917 2.884318 -0.193851
v 0.553554 2.961207 -0.193851
v 0.529087 2.998859 -0.203408
v 0.466010 2.930132 -0.203408
v -0.118196 2.380131 -0.193851
v 0.447924 2.516523 -0.188824
v 0.472361 2.415704 -0.193851
v -0.283932 2.900395 -0.203408
v 0.855900 2.907496 -0.193851
vn -0.5974 0.8019 -0.0015
vn -0.6105 0.7920 -0.0015
vn -0.5950 0.8037 -0.0015
vn -0.4987 0.8668 -0.0012
vn -0.5388 0.8424 -0.0014
vn -0.5327 0.8463 -0.0013
vn 0.0365 0.0382 -0.9986
vn 0.0319 0.0553 -0.9980
vn 0.0361 0.0424 -0.9984
vn -0.0266 -0.0396 -0.9989
vn -0.0624 -0.0692 -0.9957
vn -0.0340 -0.0365 -0.9988
vn -0.0000 -0.0000 -1.0000
vn -0.0177 -0.0693 -0.9974
vn 0.0748 -0.2257 -0.9713
vn 0.0097 -0.2329 -0.9724
vn 0.0099 -0.2321 -0.9726
vn -0.0480 -0.0869 -0.9951
vn -0.0253 -0.1469 -0.9888
vn 0.0259 0.0602 -0.9979
vn 0.0162 0.0700 -0.9974
vn -0.0523 -0.0354 -0.9980
vn -0.2119 -0.1277 -0.9689
vn -0.2238 -0.1366 -0.9650
vn 0.6105 0.7920 -0.0019
vn 0.6019 0.7985 -0.0020
vn 0.5989 0.8008 -0.0028
vn 0.4986 0.8668 -0.0016
vn 0.5439 0.8391 -0.0017
vn 0.4988 0.8667 -0.0016
vn -0.0315 0.0365 -0.9988
vn -0.0239 0.0413 -0.9989
vn -0.0247 0.0394 -0.9989
vn 0.1562 -0.1893 -0.9694
vn 0.1310 -0.2053 -0.9699
vn 0.1698 -0.1944 -0.9661
vn 0.0039 0.0780 -0.9969
vn -0.0005 0.0821 -0.9966
vn -0.0021 -0.2187 -0.9758
vn 0.0180 -0.0190 -0.9997
vn 0.0024 -0.0025 -1.0000
vn 0.0224 -0.0236 -0.9995
vn 0.5471 0.8370 -0.0027
vn 0.1301 -0.2055 -0.9700
vn 0.1472 -0.0806 -0.9858
vn 0.1412 -0.1211 -0.9825
vn 0.1469 -0.0803 -0.9859
vn 0.0021 -0.2322 -0.9727
vn 0.0177 0.0645 -0.9978
vn 0.0091 0.0516 -0.9986
vn 0.0023 0.0448 -0.9990
vn -0.0175 0.0438 -0.9989
vn 0.2532 -0.1431 -0.9568
vn 0.1875 -0.1263 -0.9741
vn 0.2563 -0.1451 -0.9556
vn 0.4987 0.8668 -0.0016
vn -0.2422 -0.1633 -0.9564
vn -0.5024 -0.2876 -0.8154
vn -0.5142 -0.2952 -0.8053
vn -0.0603 -0.2972 -0.9529
vn -0.0839 -0.3056 -0.9485
vn -0.0789 -0.2950 -0.9522
vn 0.0391 -0.1800 -0.9829
vn 0.0052 -0.2051 -0.9787
vn 0.0436 -0.1671 -0.9850
vn -0.4989 0.8667 -0.0012
vn -0.4986 0.8668 -0.0012
vn -0.1707 -0.3028 -0.9377
vn -0.2419 -0.4370 -0.8664
vn -0.1627 -0.2935 -0.9420
vn 0.4986 0.8668 -0.0015
vn 0.1294 -0.1194 -0.9844
vn 0.0948 -0.1201 -0.9882
vn 0.1360 -0.1232 -0.9830
vn 0.0007 -0.2157 -0.9764
vn -0.0646 -0.3057 -0.9499
vn 0.0746 -0.1286 -0.9889
vn -0.2213 -0.4521 -0.8641
vn -0.0886 -0.0631 -0.9941
vn 0.0385 0.0251 -0.9989
vn -0.2358 -0.1680 -0.9572
vn -0.2289 -0.2180 -0.9487
vn -0.2318 -0.2222 -0.9471
vn 0.0384 0.0199 -0.9991
vn 0.0374 0.0224 -0.9991
vn 0.0376 0.0228 -0.9990
vn 0.1372 -0.1100 -0.9844
vn -0.0398 0.0296 -0.9988
vn -0.0322 0.0305 -0.9990
vn 0.1725 -0.1268 -0.9768
vn -0.0420 0.0376 -0.9984
vn -0.0734 0.0430 -0.9964
vn -0.0888 0.0456 -0.9950
vn -0.0250 0.0392 -0.9989
vn -0.0224 0.0469 -0.9986
vn -0.4990 0.8666 -0.0012
vn 0.0715 -0.2277 -0.9711
vn 0.6105 0.7920 -0.0020
vn -0.0014 0.0812 -0.9967
vn -0.0000 0.0875 -0.9962
vn -0.0373 0.0465 -0.9982
vn -0.0281 0.0352 -0.9990
vn -0.0180 0.0454 -0.9988
s 1
usemtl Flag.001
f 8//1 1//2 7//3
f 41//4 5//5 2//6
f 67//7 9//8 62//9
f 12//10 67//11 64//12
f 27//13 50//13 48//13
f 49//13 11//14 44//13
f 27//15 39//16 35//17
f 43//13 64//12 70//13
f 65//13 53//13 71//13
f 69//13 5//13 42//13
f 5//5 7//3 2//6
f 14//13 58//13 53//13
f 16//18 11//14 15//19
f 16//20 10//21 9//8
f 63//22 8//23 5//24
f 17//25 24//26 23//27
f 45//28 21//29 46//30
f 80//31 86//32 32//33
f 80//34 28//35 75//36
f 15//37 85//38 10//21
f 36//39 15//19 11//14
f 84//13 30//13 78//13
f 21//40 82//41 46//42
f 75//13 47//13 81//13
f 18//43 24//26 21//29
f 56//13 29//13 30//13
f 32//44 27//15 28//35
f 24//45 76//46 21//47
f 57//13 37//13 60//13
f 36//39 39//16 40//48
f 33//49 39//50 34//51
f 31//52 34//51 39//50
f 36//13 50//13 35//13
f 28//13 48//13 47//13
f 46//53 83//54 55//55
f 54//28 46//30 55//56
f 12//10 44//13 11//14
f 72//57 42//58 52//59
f 57//60 44//61 58//62
f 48//63 60//64 59//65
f 52//66 41//4 51//4
f 3//67 52//66 51//4
f 71//68 43//69 70//70
f 59//13 37//13 29//13
f 38//13 58//13 13//13
f 66//13 52//13 6//13
f 19//71 55//56 22//71
f 81//72 56//73 84//74
f 55//13 77//13 22//13
f 57//60 50//75 49//76
f 47//77 59//65 56//73
f 53//78 44//61 43//69
f 72//13 65//13 71//13
f 68//79 64//12 67//11
f 61//80 67//7 62//9
f 63//22 70//13 64//12
f 69//81 71//82 70//83
f 68//84 4//85 8//86
f 84//13 77//13 83//13
f 80//34 76//46 79//87
f 80//31 74//88 73//89
f 81//13 76//13 75//13
f 84//74 82//90 81//72
f 24//91 89//92 79//93
f 86//32 31//52 32//33
f 86//32 73//89 25//94
f 86//32 26//95 31//52
f 8//1 4//2 1//2
f 41//4 42//96 5//5
f 67//7 16//20 9//8
f 12//10 16//18 67//11
f 27//13 35//13 50//13
f 49//13 36//13 11//14
f 27//15 31//97 39//16
f 43//13 12//10 64//12
f 65//13 88//13 53//13
f 69//13 63//22 5//13
f 5//5 8//1 7//3
f 14//13 13//13 58//13
f 16//18 12//10 11//14
f 16//20 15//37 10//21
f 63//22 68//79 8//23
f 17//25 20//98 24//26
f 45//28 18//43 21//29
f 80//31 73//89 86//32
f 80//34 32//44 28//35
f 15//37 40//99 85//38
f 36//39 40//48 15//19
f 84//13 56//13 30//13
f 21//40 76//13 82//41
f 75//13 28//13 47//13
f 18//43 23//27 24//26
f 56//13 59//13 29//13
f 32//44 31//97 27//15
f 24//45 79//87 76//46
f 57//13 38//13 37//13
f 36//39 35//17 39//16
f 33//49 40//100 39//50
f 31//52 26//95 34//51
f 36//13 49//13 50//13
f 28//13 27//13 48//13
f 46//53 82//90 83//54
f 54//28 45//28 46//30
f 12//10 43//13 44//13
f 72//57 69//81 42//58
f 57//60 49//76 44//61
f 48//63 50//75 60//64
f 52//66 42//96 41//4
f 3//67 6//67 52//66
f 71//68 53//78 43//69
f 59//13 60//13 37//13
f 38//13 57//13 58//13
f 66//13 72//13 52//13
f 19//71 54//28 55//56
f 81//72 47//77 56//73
f 55//13 83//13 77//13
f 57//60 60//64 50//75
f 47//77 48//63 59//65
f 53//78 58//62 44//61
f 72//13 66//13 65//13
f 68//79 63//22 64//12
f 61//80 68//84 67//7
f 63//22 69//13 70//13
f 69//81 72//57 71//82
f 68//84 61//80 4//85
f 84//13 78//13 77//13
f 80//34 75//36 76//46
f 80//31 79//101 74//88
f 81//13 82//41 76//13
f 84//74 83//54 82//90
f 24//91 20//102 89//92
f 86//32 87//103 26//95
